<svg xmlns="http://www.w3.org/2000/svg" width="400" height="649" viewBox="0 0 400 649" role="img" aria-labelledby="t d"><title id="t">System profile</title><desc id="d">Mobile neofetch panel. os: Windows 11 · WSL2 · Linux. shell: PowerShell · bash. editor: VS Code · Git. role: Database Administrator · The Bank of Punjab. previous: Camera / Image Evaluation Engineer · Transsion / Carlcare. languages: Python · HTML · CSS · JavaScript · SQL. focus: CLI tooling · desktop apps · diagnostics. domains: SQA · mobile / web · camera IQ · database ops. repos: 32 public · 499 files measured. uptime: since 2021-11-03.</desc><defs><path id="h53" d="m302 10q-77 0-134-27q-58-27-90-77q-31-49-31-116h146q0 41 29 66q30 24 80 24q49 0 76-24q28-23 28-62q0-31-18-56q-18-24-53-32l-89-21q-86-20-136-77q-51-58-51-138q0-98 63-154q64-56 174-56q110 0 175 56q65 57 65 153h-146q0-38-25-59q-25-22-69-22q-43 0-67 21q-24 21-24 56q0 57 69 73l92 21q86 19 136 83q51 63 51 152q0 65-31 114q-30 49-86 76q-57 26-134 26z"/><path id="h59" d="m225 0v-260l-210-470h157l92 220q14 33 24 70q11 37 15 60q5-23 15-60q9-37 22-70l89-220h156l-210 470v260z"/><path id="h4f" d="m300 10q-110 0-175-62q-65-62-65-168v-290q0-107 65-168q65-62 175-62q110 0 175 62q65 61 65 168v290q0 106-65 168q-65 62-175 62zm0-130q90 0 90-90v-310q0-90-90-90q-90 0-90 90v310q0 90 90 90z"/><path id="h41" d="m25 0l179-730h190l181 730h-153l-35-165h-174l-35 165zm213-285h123l-35-176q-7-38-14-75q-8-38-12-59q-4 21-10 58q-7 37-15 75z"/><path id="b6f" d="m300 9q-106 0-168-59q-62-60-62-161v-128q0-102 62-161q62-59 168-59q106 0 168 59q62 59 62 161v128q0 101-62 161q-62 59-168 59zm0-109q50 0 78-28q27-27 27-79v-136q0-52-27-79q-28-28-78-28q-50 0-78 28q-27 27-27 79v136q0 52 27 79q28 28 78 28z"/><path id="b73" d="m277 9q-98 0-155-45q-57-44-57-120h123q0 32 24 49q23 17 65 17h44q45 0 69-17q25-17 25-49q0-30-17-44q-17-15-52-20l-137-18q-66-9-101-51q-36-42-36-109q0-78 52-120q52-41 150-41h46q92 0 148 42q56 42 58 112h-124q-1-26-23-41q-22-16-59-16h-46q-40 0-61 16q-21 17-21 45q0 25 16 37q15 12 45 15l129 18q76 9 114 53q39 45 39 120q0 80-55 124q-54 43-159 43z"/><path id="b61" d="m239 10q-84 0-133-48q-48-47-48-124q0-80 55-128q55-47 151-47h134v-39q0-83-97-83q-44 0-70 17q-26 17-29 48h-120q4-74 62-120q59-46 158-46q105 0 163 49q58 49 58 138v373h-122v-103q-7 53-50 83q-43 30-112 30zm40-102q55 0 87-27q32-27 32-72v-65h-128q-41 0-65 23q-24 23-24 59q0 37 25 60q26 22 73 22z"/><path id="b6d" d="m47 0v-550h104v80h3q3-40 28-65q25-25 63-25q37 0 63 24q26 23 35 63q4-40 29-63q26-24 65-24q50 0 83 40q33 39 33 101v419h-110v-410q0-27-13-42q-12-16-35-16q-45 0-45 58v410h-100v-410q0-27-12-42q-11-16-33-16q-48 0-48 58v410z"/><path id="b40" d="m325 180q-90 0-155-36q-66-35-102-100q-35-65-35-155v-339q0-90 34-155q34-65 97-100q63-35 151-35q80 0 137 30q58 31 89 86q31 54 31 126v270q0 80-46 126q-47 47-126 47q-78 0-124-45q-45-46-45-123v-107q0-75 35-118q35-43 96-43q41 0 68 17q27 17 36 47h2v-71q0-73-40-112q-40-40-117-40q-82 0-128 52q-46 53-46 148v339q0 93 49 145q50 51 139 51h110v95zm75-318q33 0 50-22q18-23 18-63v-107q0-41-18-63q-17-22-50-22q-33 0-50 23q-18 22-18 62v107q0 40 18 63q17 22 50 22z"/><path id="b67" d="m152 180v-104h155q44 0 68-24q24-23 24-63v-33l2-86q-17 46-55 72q-37 25-91 25q-84 0-133-57q-50-56-50-153v-107q0-96 50-153q49-57 133-57q54 0 91 26q38 25 55 72v-88h122v542q0 87-57 138q-58 50-157 50zm145-320q48 0 75-28q26-29 26-80v-96q0-51-26-80q-27-28-75-28q-48 0-74 28q-26 27-26 76v104q0 49 26 76q26 28 74 28z"/><path id="b69" d="m76 0v-113h188v-324h-168v-113h293v437h169v113zm242-642q-38 0-60-20q-22-19-22-52q0-33 22-52q22-20 60-20q38 0 60 20q22 19 22 52q0 33-22 52q-22 20-60 20z"/><path id="b74" d="m355 0q-77 0-123-44q-45-45-45-121v-272h-152v-113h152v-155h126v155h219v113h-219v269q0 24 13 40q14 15 38 15h163v113z"/><path id="b68" d="m77 0v-730h125v180l-3 102q10-52 49-82q39-30 99-30q81 0 129 54q49 54 49 145v361h-125v-346q0-51-26-78q-27-28-72-28q-47 0-74 28q-26 28-26 80v344z"/><path id="b75" d="m300 10q-105 0-165-58q-60-59-60-160v-342h125v341q0 52 26 81q26 29 74 29q47 0 74-29q26-29 26-81v-341h125v342q0 101-61 160q-61 58-164 58z"/><path id="b62" d="m350 10q-58 0-97-29q-39-29-54-81v100h-122v-730h125v154l-4 126q16-52 56-81q39-29 96-29q81 0 130 57q49 57 49 154v149q0 96-49 153q-50 57-130 57zm-47-108q48 0 75-26q26-26 26-80v-142q0-54-26-80q-27-26-75-26q-48 0-75 29q-26 29-26 82v132q0 53 26 82q27 29 75 29z"/><path id="r4b" d="m92 0v-730h90v314h108l162-314h98l-181 352l191 378h-103l-170-337h-105v337z"/><path id="r45" d="m100 0v-730h420v82h-331v226h296v80h-296v260h331v82z"/><path id="r52" d="m93 0v-730h225q65 0 114 26q49 27 76 74q27 47 27 110q0 74-38 127q-38 53-101 74l149 319h-99l-143-310h-121v310zm89-391h136q56 0 90-35q34-36 34-94q0-59-34-94q-34-35-90-35h-136z"/><path id="r4e" d="m90 0v-730h120l223 625q-2-25-5-61q-2-37-4-78q-1-40-1-76v-410h87v730h-120l-222-625q2 24 4 61q2 36 4 76q1 41 1 78v410z"/><path id="r4c" d="m130 0v-730h90v648h330v82z"/><path id="r73" d="m278 8q-92 0-142-42q-51-41-51-117h90q0 38 27 59q27 22 76 22h44q50 0 78-22q27-22 27-62q0-71-65-80l-152-22q-56-8-87-46q-31-39-31-102q0-72 50-113q49-41 136-41h44q80 0 130 40q51 39 55 103h-91q-2-29-28-48q-25-19-66-19h-44q-46 0-72 21q-26 21-26 57q0 58 53 66l142 20q140 20 140 164q0 77-51 120q-50 42-142 42z"/><path id="r6f" d="m300 8q-99 0-158-58q-58-58-58-162v-126q0-105 58-162q58-58 158-58q100 0 158 58q58 57 58 162v126q0 104-58 162q-59 58-158 58zm0-80q59 0 92-33q34-33 34-97v-146q0-64-34-97q-33-33-92-33q-58 0-92 33q-34 33-34 97v146q0 64 34 97q34 33 92 33z"/><path id="r66" d="m215 0v-393h-160v-82h160v-115q0-65 41-102q41-38 113-38h161v82h-161q-64 0-64 58v115h225v82h-225v393z"/><path id="r74" d="m355 0q-68 0-109-40q-41-39-41-105v-323h-158v-82h158v-155h90v155h225v82h-225v323q0 28 17 45q16 18 43 18h160v82z"/><path id="r77" d="m121 0l-90-550h78l56 388q3 22 6 48q3 27 4 44q2-17 5-44q2-26 6-48l69-388h90l69 388q4 22 8 48q3 27 4 44q2-17 5-44q3-26 6-48l58-388h74l-94 550h-99l-63-380q-4-28-7-60q-4-31-6-48q-1 17-5 48q-4 32-9 60l-66 380z"/><path id="r61" d="m252 10q-85 0-135-48q-50-47-50-124q0-51 23-89q23-38 64-59q41-22 94-22h170v-43q0-107-117-107q-52 0-84 19q-32 19-34 53h-90q5-65 61-108q55-42 147-42q100 0 153 48q54 48 54 134v378h-89v-100h-2q-8 51-51 80q-43 30-114 30zm22-76q66 0 105-32q39-32 39-87v-77h-160q-44 0-72 26q-27 27-27 71q0 46 31 73q30 26 84 26z"/><path id="r72" d="m112 0v-550h90v105h2q7-53 45-84q38-31 102-31q86 0 133 52q46 51 46 146v47h-90v-47q0-120-117-120q-59 0-90 34q-31 34-31 98v350z"/><path id="r65" d="m300 10q-97 0-156-58q-60-59-60-162v-130q0-103 60-162q59-58 156-58q65 0 114 26q48 26 75 73q27 47 27 111v98h-344v52q0 61 35 96q35 36 93 36q50 0 82-20q33-19 40-52h90q-9 69-67 110q-58 40-145 40zm-128-332h256v-28q0-65-34-100q-33-36-94-36q-61 0-94 36q-34 35-34 100z"/><path id="r6e" d="m92 0v-550h90v105h1q7-55 45-85q38-30 101-30q83 0 132 51q49 51 49 139v370h-90v-354q0-63-32-96q-31-34-85-34q-56 0-89 35q-32 35-32 99v350z"/><path id="r67" d="m161 180v-82h155q47 0 74-26q27-27 27-72v-50l2-90h-3q-8 49-47 76q-39 26-98 26q-85 0-134-54q-49-54-49-148v-116q0-94 49-149q49-55 134-55q59 0 98 28q39 28 47 77h2v-95h89v550q0 83-51 132q-52 48-141 48zm137-293q56 0 88-35q32-35 32-97v-105q0-62-32-97q-32-35-88-35q-57 0-88 33q-32 33-32 89v125q0 56 32 89q31 33 88 33z"/><path id="r69" d="m85 0v-82h195v-386h-175v-82h265v468h185v82zm230-649q-33 0-52-17q-19-17-19-46q0-30 19-48q19-17 52-17q33 0 52 17q19 18 19 48q0 29-19 46q-19 17-52 17z"/><path id="r30" d="m300 10q-101 0-160-58q-60-59-60-157v-320q0-98 60-157q59-58 160-58q101 0 160 58q60 59 60 157v320q0 65-27 113q-27 49-77 76q-49 26-116 26zm0-77q60 0 96-39q37-38 37-99v-320q0-61-37-99q-36-39-96-39q-60 0-96 39q-37 38-37 99v320q0 61 37 99q36 39 96 39zm0-243q-27 0-44-15q-16-15-16-43q0-27 16-42q17-14 44-14q27 0 44 14q16 15 16 42q0 28-16 43q-17 15-44 15z"/><path id="r31" d="m90 0v-82h198v-570l-198 148v-103l165-123h123v648h162v82z"/><path id="b4f" d="m300 10q-105 0-166-60q-62-60-62-166v-298q0-106 62-166q61-60 166-60q105 0 166 60q62 60 62 165v299q0 106-62 166q-61 60-166 60zm0-110q51 0 77-28q26-27 26-78v-318q0-51-26-78q-26-28-77-28q-51 0-77 28q-26 27-26 78v318q0 51 26 78q26 28 77 28z"/><path id="b53" d="m303 10q-74 0-129-26q-56-26-86-74q-31-49-31-116h123q0 49 34 78q33 29 89 29q54 0 85-29q32-28 32-76q0-36-20-64q-21-27-59-37l-98-25q-79-20-125-75q-46-55-46-131q0-93 61-148q61-56 163-56q69 0 120 25q52 25 80 71q28 45 28 106h-122q0-42-29-68q-29-26-77-26q-47 0-74 26q-28 25-28 66q0 34 20 56q19 22 54 32l101 25q81 20 127 80q47 60 47 143q0 65-29 113q-30 48-84 75q-54 26-127 26z"/><path id="r57" d="m107 0l-87-730h83l57 540q4 33 6 68q2 36 3 57q2-21 5-57q4-35 8-68l72-540h97l66 540q4 33 8 68q4 36 6 57q2-21 5-57q2-35 6-68l59-540h79l-89 730h-113l-66-550q-4-34-6-66q-2-33-4-51q-2 18-4 51q-2 32-7 66l-71 550z"/><path id="r64" d="m268 10q-82 0-132-55q-49-55-49-149v-161q0-95 49-150q49-55 132-55q62 0 102 31q41 31 49 84h1l-2-125v-160h90v730h-90v-105h-1q-7 54-47 85q-40 30-102 30zm30-78q56 0 88-35q32-35 32-97v-150q0-62-32-97q-32-35-88-35q-57 0-89 30q-32 29-32 97v160q0 67 32 97q32 30 89 30z"/><path id="rb7" d="m300-260q-37 0-60-22q-22-22-22-57q0-37 22-60q23-23 60-23q37 0 60 23q22 23 22 60q0 35-22 57q-23 22-60 22z"/><path id="r53" d="m304 10q-106 0-169-56q-63-56-63-154h90q0 61 39 96q39 34 103 34q62 0 99-36q37-36 37-94q0-44-24-76q-23-33-67-45l-111-31q-69-20-108-72q-40-51-40-121q0-58 26-102q26-44 73-69q47-24 108-24q62 0 109 24q48 25 75 68q27 44 27 101h-90q0-50-34-81q-34-32-87-32q-53 0-86 32q-33 31-33 81q0 40 22 69q21 28 60 39l114 32q73 20 114 75q40 56 40 132q0 96-61 153q-61 57-163 57z"/><path id="r32" d="m86 0v-83l243-260q53-56 75-100q22-44 22-86q0-60-34-95q-35-36-94-36q-61 0-96 36q-36 37-36 99h-90q3-99 63-157q60-58 159-58q101 0 160 57q60 57 60 155q0 52-28 110q-29 58-98 130l-197 206h332v82z"/><path id="r75" d="m299 10q-95 0-152-56q-57-57-57-154v-350h90v350q0 60 32 96q32 35 87 35q56 0 89-35q32-36 32-96v-350h90v350q0 97-58 154q-58 56-153 56z"/><path id="r78" d="m50 0l195-283l-183-267h106l109 170q7 11 13 24q7 13 11 21q3-8 9-21q7-13 14-24l109-170h106l-183 268l194 282h-106l-118-180q-7-11-14-26q-6-14-11-23q-4 9-11 23q-8 15-16 26l-118 180z"/><path id="b48" d="m77 0v-730h125v296h196v-296h125v730h-125v-321h-196v321z"/><path id="b45" d="m88 0v-730h438v110h-315v190h280v106h-280v214h315v110z"/><path id="b4c" d="m121 0v-730h125v617h310v113z"/><path id="r50" d="m92 0v-730h235q102 0 163 58q60 59 60 157q0 98-60 157q-61 58-163 58h-145v300zm90-381h145q59 0 95-37q35-36 35-97q0-62-35-98q-36-36-95-36h-145z"/><path id="r68" d="m92 0v-730h90v285h1q7-55 45-85q38-30 101-30q83 0 132 51q49 51 49 139v370h-90v-355q0-62-32-95q-31-34-85-34q-56 0-89 35q-32 35-32 99v350z"/><path id="r6c" d="m380 0q-73 0-116-42q-44-43-44-113v-493h-190v-82h280v575q0 34 19 53q19 20 51 20h170v82z"/><path id="r62" d="m332 10q-62 0-102-30q-40-31-47-85h-1v105h-90v-730h90v160l-2 125h1q8-53 49-84q40-31 102-31q83 0 132 55q49 55 49 150v161q0 94-49 149q-49 55-132 55zm-30-78q57 0 89-30q32-30 32-97v-160q0-68-32-97q-32-30-89-30q-55 0-88 35q-32 35-32 97v150q0 62 32 97q33 35 88 35z"/><path id="r33" d="m289 10q-101 0-160-56q-59-57-59-154h90q0 60 35 95q35 35 95 35q60 0 95-35q35-35 35-95v-50q0-60-35-95q-35-35-95-35h-79v-78l179-190h-300v-82h402v84l-176 187q90 7 142 63q52 55 52 146v50q0 97-60 154q-59 56-161 56z"/><path id="b44" d="m75 0v-730h217q74 0 128 28q55 29 85 80q30 51 30 120v273q0 69-30 121q-30 51-85 80q-54 28-128 28zm125-112h92q54 0 86-32q32-31 32-85v-273q0-53-32-84q-32-32-86-32h-92z"/><path id="b49" d="m90 0v-113h147v-504h-147v-113h420v113h-147v504h147v113z"/><path id="b54" d="m237 0v-617h-191v-113h508v113h-191v617z"/><path id="b52" d="m77 0v-730h230q73 0 127 27q53 27 83 75q30 49 30 115q0 73-36 127q-36 55-97 78l143 308h-137l-128-290h-91v290zm124-400h106q53 0 83-29q30-29 30-80q0-51-30-81q-31-30-83-30h-106z"/><path id="r56" d="m238 0l-188-730h92l125 497q13 52 21 96q9 44 13 67q4-23 13-68q10-44 23-96l120-496h93l-189 730z"/><path id="r43" d="m308 10q-100 0-158-56q-58-56-58-154v-330q0-98 58-154q58-56 158-56q98 0 156 56q58 57 58 154h-90q0-62-32-96q-33-33-92-33q-59 0-92 33q-34 34-34 96v330q0 62 34 96q33 33 92 33q59 0 92-33q32-34 32-96h90q0 97-58 154q-58 56-156 56z"/><path id="r47" d="m304 10q-100 0-158-56q-58-56-58-154v-330q0-98 58-154q58-56 158-56q98 0 156 56q58 57 58 154h-90q0-62-32-96q-33-33-92-33q-59 0-92 33q-34 33-34 95v331q0 62 34 96q33 34 92 34q59 0 92-34q32-34 32-96v-100h-148v-82h238v182q0 97-58 154q-58 56-156 56z"/><path id="r34" d="m400 0v-160h-330v-141l266-429h102l-278 449v39h240v-178h90v420z"/><path id="r44" d="m92 0v-730h189q71 0 123 27q51 27 80 76q28 49 28 116v291q0 67-28 116q-29 50-80 77q-52 27-123 27zm90-80h99q66 0 103-37q38-37 38-103v-291q0-65-38-102q-37-37-103-37h-99z"/><path id="r41" d="m50 0l190-730h121l189 730h-91l-48-194h-221l-48 194zm158-270h184l-56-225q-16-64-25-107q-9-43-11-56q-2 13-11 56q-9 43-25 106z"/><path id="r6d" d="m60 0v-550h78v73h2q5-37 30-60q24-23 62-23q36 0 61 21q25 21 36 57h1q7-36 32-57q24-21 62-21q53 0 84 40q32 39 32 102v418h-84v-419q0-33-16-53q-16-19-44-19q-27 0-43 19q-16 19-16 52v420h-74v-419q0-33-16-53q-16-19-43-19q-28 0-44 19q-16 19-16 52v420z"/><path id="r54" d="m255 0v-648h-200v-82h490v82h-200v648z"/><path id="r42" d="m93 0v-730h207q100 0 156 50q57 50 57 139q0 56-35 101q-36 45-93 56v3q43 5 75 30q33 25 52 63q18 39 18 85q0 94-58 149q-57 54-157 54zm88-419h118q58 0 91-31q34-31 34-84q0-53-33-84q-33-31-91-31h-119zm0 338h124q63 0 99-33q37-34 37-92q0-60-37-98q-36-37-99-37h-124z"/><path id="r6b" d="m97 0v-730h90v407h105l154-227h103l-177 262l187 288h-105l-160-245h-107v245z"/><path id="r6a" d="m90 180v-82h124q62 0 96-34q35-34 35-95v-437h-260v-82h350v519q0 97-60 154q-60 57-161 57zm290-829q-33 0-52-17q-19-17-19-46q0-30 19-48q19-17 52-17q33 0 52 17q19 18 19 48q0 29-19 46q-19 17-52 17z"/><path id="r35" d="m294 10q-101 0-160-56q-59-57-59-154h90q0 60 35 95q35 35 95 35q60 0 95-35q35-35 35-95v-45q0-60-34-95q-34-35-92-35h-199v-355h389v82h-305l2 191h118q101 0 156 55q55 56 55 157v45q0 97-59 154q-60 56-162 56z"/><path id="b50" d="m77 0v-730h243q73 0 128 28q54 28 84 78q30 51 30 119q0 68-30 119q-30 50-84 78q-55 28-128 28h-118v280zm125-390h118q53 0 84-32q31-32 31-83q0-51-31-83q-31-32-84-32h-118z"/><path id="b56" d="m219 0l-184-730h129l111 476q9 35 17 76q7 40 11 64q4-24 11-64q8-41 17-77l107-475h127l-184 730z"/><path id="b55" d="m300 10q-107 0-168-58q-60-59-60-160v-522h126v521q0 52 26 81q26 29 76 29q49 0 76-29q26-29 26-81v-521h126v522q0 101-60 160q-60 58-168 58z"/><path id="r2f" d="m75 110l355-940h95l-355 940z"/><path id="r49" d="m105 0v-82h149v-566h-149v-82h390v82h-149v566h149v82z"/><path id="r76" d="m241 0l-187-550h97l120 370q11 33 19 64q8 30 12 47q5-17 12-47q7-31 17-64l120-370h95l-187 550z"/><path id="r63" d="m308 10q-100 0-160-56q-60-56-60-154v-150q0-98 60-154q60-56 160-56q95 0 154 51q58 51 61 139h-90q-3-53-36-82q-33-28-89-28q-59 0-94 34q-36 33-36 95v151q0 62 36 96q35 34 94 34q56 0 89-29q33-29 36-81h90q-3 88-61 139q-59 51-154 51z"/><path id="r36" d="m301 10q-70 0-123-30q-54-29-84-82q-30-52-30-121q0-48 18-99q18-50 49-105l169-303h100l-180 313l3 2q13-17 39-26q26-9 57-9q65 0 113 28q49 29 76 79q28 50 28 116q0 70-30 123q-30 54-82 84q-53 30-123 30zm-1-80q65 0 106-43q40-43 40-112q0-69-40-112q-41-43-106-43q-65 0-106 43q-40 43-40 112q0 69 40 112q41 43 106 43z"/><path id="b41" d="m35 0l184-730h161l185 730h-128l-40-177h-194l-40 177zm191-279h148l-44-196q-11-49-19-89q-8-39-11-57q-3 18-11 57q-8 40-19 88z"/><path id="b4e" d="m72 0v-730h153l203 590q-3-32-6-76q-3-43-6-88q-2-45-2-80v-346h114v730h-153l-201-590q2 29 5 70q3 41 5 84q2 43 2 79v357z"/><path id="b47" d="m304 10q-71 0-123-26q-52-27-81-76q-28-48-28-114v-318q0-66 28-114q29-49 81-76q52-26 123-26q70 0 122 26q52 27 81 76q29 48 29 114h-126q0-51-28-78q-27-28-78-28q-51 0-79 27q-28 27-28 78v319q0 51 28 79q28 28 79 28q51 0 78-28q28-28 28-79v-81h-124v-108h250v189q0 66-29 114q-29 49-81 76q-52 26-122 26z"/><path id="r79" d="m178 180l81-214l-205-516h97l130 340q8 20 15 42q7 22 10 38q3-16 10-38q7-22 14-42l121-340h95l-274 730z"/><path id="r48" d="m93 0v-730h90v312h234v-312h90v730h-90v-336h-234v336z"/><path id="r4d" d="m72 0v-730h133l93 316l97-316h133v730h-87v-345q0-49 1-113q2-63 5-128q3-65 7-117l-118 377h-78l-113-368q8 74 11 162q3 88 3 187v345z"/><path id="r4a" d="m270 10q-105 0-165-59q-60-59-60-161h90q0 67 35 104q36 36 100 36q64 0 100-36q35-37 35-104v-520h90v520q0 102-61 161q-60 59-164 59z"/><path id="r70" d="m92 180v-730h90v105h1q7-54 47-85q40-30 102-30q83 0 132 54q49 55 49 150v161q0 95-49 150q-49 55-132 55q-62 0-102-31q-40-31-47-84h-3l2 125v160zm210-248q57 0 89-30q32-30 32-97v-160q0-68-32-97q-32-30-89-30q-55 0-88 35q-32 35-32 97v150q0 62 32 97q33 35 88 35z"/><path id="r51" d="m422 180l-103-171q-4 0-9 1q-5 0-10 0q-101 0-160-58q-60-59-60-157v-320q0-98 60-157q59-58 160-58q101 0 160 58q60 59 60 157v320q0 67-29 117q-29 50-82 75l117 193zm-122-250q59 0 94-37q36-37 36-98v-320q0-62-36-99q-35-36-94-36q-59 0-94 36q-36 37-36 99v320q0 61 36 98q35 37 94 37z"/><path id="r37" d="m190 0l260-648h-278v118h-90v-200h464v84l-258 646z"/><path id="b46" d="m80 0v-730h454v116h-331v195h305v116h-303v303z"/><path id="b43" d="m308 10q-71 0-123-26q-52-27-81-76q-28-48-28-114v-318q0-66 28-114q29-49 81-76q52-26 123-26q70 0 122 26q52 27 81 76q29 48 29 114h-126q0-51-28-78q-27-28-78-28q-51 0-79 28q-28 27-28 78v318q0 51 28 78q28 28 79 28q51 0 78-28q28-27 28-78h126q0 66-29 114q-29 49-81 76q-52 26-122 26z"/><path id="r38" d="m300 10q-69 0-122-27q-53-27-82-75q-30-49-30-112q0-69 40-119q39-50 105-61v-3q-57-13-91-57q-34-45-34-103q0-57 27-101q27-43 75-68q49-24 112-24q64 0 112 24q48 25 75 68q27 44 27 101q0 58-34 103q-34 44-91 57v3q66 11 105 61q40 50 40 119q0 63-30 112q-29 48-82 75q-52 27-122 27zm0-432q56 0 90-33q34-33 34-86q0-53-34-86q-34-33-90-33q-55 0-90 33q-34 33-34 86q0 53 34 86q35 33 90 33zm0 351q64 0 104-37q40-38 40-98q0-61-40-98q-40-38-104-38q-64 0-104 38q-40 37-40 98q0 60 40 98q40 37 104 37z"/><path id="b4d" d="m54 0v-730h163l82 314l83-314h164v730h-117v-307q0-63 3-131q4-67 9-130q5-64 11-116l-103 367h-103l-99-358q9 69 17 165q7 95 7 203v307z"/><path id="r39" d="m195 0l180-313l-3-2q-10 16-37 25q-27 10-59 10q-63 0-110-28q-48-29-75-79q-27-50-27-116q0-71 30-124q30-53 83-83q53-30 122-30q71 0 124 30q53 29 83 82q30 52 30 121q0 48-18 99q-18 50-49 105l-169 303zm105-350q65 0 106-43q40-43 40-112q0-69-40-112q-41-43-106-43q-65 0-106 43q-40 43-40 112q0 69 40 112q41 43 106 43z"/><path id="r2d" d="m140-290v-80h320v80z"/><path id="r55" d="m300 10q-102 0-156-56q-54-57-54-154v-530h90v530q0 60 30 95q29 35 90 35q60 0 90-35q30-35 30-95v-530h90v530q0 98-54 154q-53 56-156 56z"/><path id="r4f" d="m300 10q-98 0-155-57q-57-57-57-163v-310q0-106 57-163q57-57 155-57q98 0 155 57q57 57 57 162v311q0 106-57 163q-57 57-155 57zm0-81q59 0 90-33q32-34 32-96v-330q0-62-32-96q-31-33-90-33q-58 0-90 33q-32 34-32 96v330q0 62 32 96q32 33 90 33z"/><path id="r59" d="m255 0v-273l-220-457h96l142 300q12 25 19 42q7 18 9 26q2-8 9-26q8-17 20-42l142-300h93l-220 457v273z"/><path id="r46" d="m95 0v-730h430v82h-342v242h316v82h-314v324z"/></defs><rect x="0.0" y="0.0" width="400.0" height="649.0" fill="#06070B"/><rect x="18.0" y="18.0" width="28.0" height="28.0" fill="#9A410B"/><rect x="18.0" y="46.0" width="28.0" height="28.0" fill="#E8742A"/><g fill="#ECE7DD" transform="translate(24.6 37.6) scale(0.01232)"><use href="#h53" x="0"/><use href="#h59" x="600"/></g><g fill="#140804" transform="translate(24.6 65.6) scale(0.01232)"><use href="#h4f" x="0"/><use href="#h41" x="600"/></g><g fill="#E8742A" transform="translate(60.0 36.0) scale(0.01400)"><use href="#b6f" x="0"/><use href="#b73" x="600"/><use href="#b61" x="1200"/><use href="#b6d" x="1800"/><use href="#b61" x="2400"/></g><g fill="#89847B" transform="translate(102.0 36.0) scale(0.01400)"><use href="#b40" x="0"/></g><g fill="#6E9A9A" transform="translate(110.4 36.0) scale(0.01400)"><use href="#b67" x="0"/><use href="#b69" x="600"/><use href="#b74" x="1200"/><use href="#b68" x="1800"/><use href="#b75" x="2400"/><use href="#b62" x="3000"/></g><g fill="#89847B" transform="translate(60.0 56.0) scale(0.00900)"><use href="#r4b" x="0"/><use href="#r45" x="689"/><use href="#r52" x="1378"/><use href="#r4e" x="2067"/><use href="#r45" x="2756"/><use href="#r4c" x="3444"/></g><g fill="#A8A397" transform="translate(104.4 56.0) scale(0.00900)"><use href="#r73" x="0"/><use href="#r6f" x="644"/><use href="#r66" x="1289"/><use href="#r74" x="1933"/><use href="#r77" x="2578"/><use href="#r61" x="3222"/><use href="#r72" x="3867"/><use href="#r65" x="4511"/><use href="#r65" x="5800"/><use href="#r6e" x="6444"/><use href="#r67" x="7089"/><use href="#r69" x="7733"/><use href="#r6e" x="8378"/><use href="#r65" x="9022"/><use href="#r65" x="9667"/><use href="#r72" x="10311"/><use href="#r69" x="10956"/><use href="#r6e" x="11600"/><use href="#r67" x="12244"/></g><line x1="18.0" y1="80.0" x2="382.0" y2="80.0" stroke="#1C1F27" stroke-width="1"/><rect x="18.5" y="85.5" width="5" height="5" fill="none" stroke="#6E9A9A" stroke-width="1.2"/><g fill="#89847B" transform="translate(32.0 92.0) scale(0.00900)"><use href="#r30" x="0"/><use href="#r31" x="600"/></g><g fill="#89847B" transform="translate(56.0 92.0) scale(0.01000)"><use href="#b4f" x="0"/><use href="#b53" x="700"/></g><g fill="#ECE7DD" transform="translate(56.0 111.0) scale(0.01200)"><use href="#r57" x="0"/><use href="#r69" x="600"/><use href="#r6e" x="1200"/><use href="#r64" x="1800"/><use href="#r6f" x="2400"/><use href="#r77" x="3000"/><use href="#r73" x="3600"/><use href="#r31" x="4800"/><use href="#r31" x="5400"/><use href="#rb7" x="6600"/><use href="#r57" x="7800"/><use href="#r53" x="8400"/><use href="#r4c" x="9000"/><use href="#r32" x="9600"/><use href="#rb7" x="10800"/><use href="#r4c" x="12000"/><use href="#r69" x="12600"/><use href="#r6e" x="13200"/><use href="#r75" x="13800"/><use href="#r78" x="14400"/></g><rect x="18.5" y="134.5" width="5" height="5" fill="none" stroke="#6E9A9A" stroke-width="1.2"/><g fill="#89847B" transform="translate(32.0 141.0) scale(0.00900)"><use href="#r30" x="0"/><use href="#r32" x="600"/></g><g fill="#89847B" transform="translate(56.0 141.0) scale(0.01000)"><use href="#b53" x="0"/><use href="#b48" x="700"/><use href="#b45" x="1400"/><use href="#b4c" x="2100"/><use href="#b4c" x="2800"/></g><g fill="#ECE7DD" transform="translate(56.0 160.0) scale(0.01200)"><use href="#r50" x="0"/><use href="#r6f" x="600"/><use href="#r77" x="1200"/><use href="#r65" x="1800"/><use href="#r72" x="2400"/><use href="#r53" x="3000"/><use href="#r68" x="3600"/><use href="#r65" x="4200"/><use href="#r6c" x="4800"/><use href="#r6c" x="5400"/><use href="#rb7" x="6600"/><use href="#r62" x="7800"/><use href="#r61" x="8400"/><use href="#r73" x="9000"/><use href="#r68" x="9600"/></g><rect x="18.5" y="183.5" width="5" height="5" fill="none" stroke="#6E9A9A" stroke-width="1.2"/><g fill="#89847B" transform="translate(32.0 190.0) scale(0.00900)"><use href="#r30" x="0"/><use href="#r33" x="600"/></g><g fill="#89847B" transform="translate(56.0 190.0) scale(0.01000)"><use href="#b45" x="0"/><use href="#b44" x="700"/><use href="#b49" x="1400"/><use href="#b54" x="2100"/><use href="#b4f" x="2800"/><use href="#b52" x="3500"/></g><g fill="#ECE7DD" transform="translate(56.0 209.0) scale(0.01200)"><use href="#r56" x="0"/><use href="#r53" x="600"/><use href="#r43" x="1800"/><use href="#r6f" x="2400"/><use href="#r64" x="3000"/><use href="#r65" x="3600"/><use href="#rb7" x="4800"/><use href="#r47" x="6000"/><use href="#r69" x="6600"/><use href="#r74" x="7200"/></g><rect x="18.5" y="232.5" width="5" height="5" fill="none" stroke="#6E9A9A" stroke-width="1.2"/><g fill="#89847B" transform="translate(32.0 239.0) scale(0.00900)"><use href="#r30" x="0"/><use href="#r34" x="600"/></g><g fill="#89847B" transform="translate(56.0 239.0) scale(0.01000)"><use href="#b52" x="0"/><use href="#b4f" x="700"/><use href="#b4c" x="1400"/><use href="#b45" x="2100"/></g><g fill="#ECE7DD" transform="translate(56.0 258.0) scale(0.01200)"><use href="#r44" x="0"/><use href="#r61" x="600"/><use href="#r74" x="1200"/><use href="#r61" x="1800"/><use href="#r62" x="2400"/><use href="#r61" x="3000"/><use href="#r73" x="3600"/><use href="#r65" x="4200"/><use href="#r41" x="5400"/><use href="#r64" x="6000"/><use href="#r6d" x="6600"/><use href="#r69" x="7200"/><use href="#r6e" x="7800"/><use href="#r69" x="8400"/><use href="#r73" x="9000"/><use href="#r74" x="9600"/><use href="#r72" x="10200"/><use href="#r61" x="10800"/><use href="#r74" x="11400"/><use href="#r6f" x="12000"/><use href="#r72" x="12600"/><use href="#rb7" x="13800"/><use href="#r54" x="15000"/><use href="#r68" x="15600"/><use href="#r65" x="16200"/><use href="#r42" x="17400"/><use href="#r61" x="18000"/><use href="#r6e" x="18600"/><use href="#r6b" x="19200"/><use href="#r6f" x="20400"/><use href="#r66" x="21000"/><use href="#r50" x="22200"/><use href="#r75" x="22800"/><use href="#r6e" x="23400"/><use href="#r6a" x="24000"/><use href="#r61" x="24600"/><use href="#r62" x="25200"/></g><rect x="18.5" y="281.5" width="5" height="5" fill="none" stroke="#6E9A9A" stroke-width="1.2"/><g fill="#89847B" transform="translate(32.0 288.0) scale(0.00900)"><use href="#r30" x="0"/><use href="#r35" x="600"/></g><g fill="#89847B" transform="translate(56.0 288.0) scale(0.01000)"><use href="#b50" x="0"/><use href="#b52" x="700"/><use href="#b45" x="1400"/><use href="#b56" x="2100"/><use href="#b49" x="2800"/><use href="#b4f" x="3500"/><use href="#b55" x="4200"/><use href="#b53" x="4900"/></g><g fill="#ECE7DD" transform="translate(56.0 307.0) scale(0.01200)"><use href="#r43" x="0"/><use href="#r61" x="600"/><use href="#r6d" x="1200"/><use href="#r65" x="1800"/><use href="#r72" x="2400"/><use href="#r61" x="3000"/><use href="#r2f" x="4200"/><use href="#r49" x="5400"/><use href="#r6d" x="6000"/><use href="#r61" x="6600"/><use href="#r67" x="7200"/><use href="#r65" x="7800"/><use href="#r45" x="9000"/><use href="#r76" x="9600"/><use href="#r61" x="10200"/><use href="#r6c" x="10800"/><use href="#r75" x="11400"/><use href="#r61" x="12000"/><use href="#r74" x="12600"/><use href="#r69" x="13200"/><use href="#r6f" x="13800"/><use href="#r6e" x="14400"/><use href="#r45" x="15600"/><use href="#r6e" x="16200"/><use href="#r67" x="16800"/><use href="#r69" x="17400"/><use href="#r6e" x="18000"/><use href="#r65" x="18600"/><use href="#r65" x="19200"/><use href="#r72" x="19800"/><use href="#rb7" x="21000"/></g><g fill="#ECE7DD" transform="translate(56.0 324.0) scale(0.01200)"><use href="#r54" x="0"/><use href="#r72" x="600"/><use href="#r61" x="1200"/><use href="#r6e" x="1800"/><use href="#r73" x="2400"/><use href="#r73" x="3000"/><use href="#r69" x="3600"/><use href="#r6f" x="4200"/><use href="#r6e" x="4800"/><use href="#r2f" x="6000"/><use href="#r43" x="7200"/><use href="#r61" x="7800"/><use href="#r72" x="8400"/><use href="#r6c" x="9000"/><use href="#r63" x="9600"/><use href="#r61" x="10200"/><use href="#r72" x="10800"/><use href="#r65" x="11400"/></g><rect x="18.0" y="347.0" width="6.0" height="6.0" fill="#E8742A"/><g fill="#89847B" transform="translate(32.0 354.0) scale(0.00900)"><use href="#r30" x="0"/><use href="#r36" x="600"/></g><g fill="#89847B" transform="translate(56.0 354.0) scale(0.01000)"><use href="#b4c" x="0"/><use href="#b41" x="700"/><use href="#b4e" x="1400"/><use href="#b47" x="2100"/><use href="#b55" x="2800"/><use href="#b41" x="3500"/><use href="#b47" x="4200"/><use href="#b45" x="4900"/><use href="#b53" x="5600"/></g><g fill="#ECE7DD" transform="translate(56.0 373.0) scale(0.01200)"><use href="#r50" x="0"/><use href="#r79" x="600"/><use href="#r74" x="1200"/><use href="#r68" x="1800"/><use href="#r6f" x="2400"/><use href="#r6e" x="3000"/><use href="#rb7" x="4200"/><use href="#r48" x="5400"/><use href="#r54" x="6000"/><use href="#r4d" x="6600"/><use href="#r4c" x="7200"/><use href="#rb7" x="8400"/><use href="#r43" x="9600"/><use href="#r53" x="10200"/><use href="#r53" x="10800"/><use href="#rb7" x="12000"/><use href="#r4a" x="13200"/><use href="#r61" x="13800"/><use href="#r76" x="14400"/><use href="#r61" x="15000"/><use href="#r53" x="15600"/><use href="#r63" x="16200"/><use href="#r72" x="16800"/><use href="#r69" x="17400"/><use href="#r70" x="18000"/><use href="#r74" x="18600"/><use href="#rb7" x="19800"/><use href="#r53" x="21000"/><use href="#r51" x="21600"/><use href="#r4c" x="22200"/></g><rect x="18.0" y="396.0" width="6.0" height="6.0" fill="#E8742A"/><g fill="#89847B" transform="translate(32.0 403.0) scale(0.00900)"><use href="#r30" x="0"/><use href="#r37" x="600"/></g><g fill="#89847B" transform="translate(56.0 403.0) scale(0.01000)"><use href="#b46" x="0"/><use href="#b4f" x="700"/><use href="#b43" x="1400"/><use href="#b55" x="2100"/><use href="#b53" x="2800"/></g><g fill="#ECE7DD" transform="translate(56.0 422.0) scale(0.01200)"><use href="#r43" x="0"/><use href="#r4c" x="600"/><use href="#r49" x="1200"/><use href="#r74" x="2400"/><use href="#r6f" x="3000"/><use href="#r6f" x="3600"/><use href="#r6c" x="4200"/><use href="#r69" x="4800"/><use href="#r6e" x="5400"/><use href="#r67" x="6000"/><use href="#rb7" x="7200"/><use href="#r64" x="8400"/><use href="#r65" x="9000"/><use href="#r73" x="9600"/><use href="#r6b" x="10200"/><use href="#r74" x="10800"/><use href="#r6f" x="11400"/><use href="#r70" x="12000"/><use href="#r61" x="13200"/><use href="#r70" x="13800"/><use href="#r70" x="14400"/><use href="#r73" x="15000"/><use href="#rb7" x="16200"/><use href="#r64" x="17400"/><use href="#r69" x="18000"/><use href="#r61" x="18600"/><use href="#r67" x="19200"/><use href="#r6e" x="19800"/><use href="#r6f" x="20400"/><use href="#r73" x="21000"/><use href="#r74" x="21600"/><use href="#r69" x="22200"/><use href="#r63" x="22800"/><use href="#r73" x="23400"/></g><rect x="18.5" y="445.5" width="5" height="5" fill="none" stroke="#6E9A9A" stroke-width="1.2"/><g fill="#89847B" transform="translate(32.0 452.0) scale(0.00900)"><use href="#r30" x="0"/><use href="#r38" x="600"/></g><g fill="#89847B" transform="translate(56.0 452.0) scale(0.01000)"><use href="#b44" x="0"/><use href="#b4f" x="700"/><use href="#b4d" x="1400"/><use href="#b41" x="2100"/><use href="#b49" x="2800"/><use href="#b4e" x="3500"/><use href="#b53" x="4200"/></g><g fill="#ECE7DD" transform="translate(56.0 471.0) scale(0.01200)"><use href="#r53" x="0"/><use href="#r51" x="600"/><use href="#r41" x="1200"/><use href="#rb7" x="2400"/><use href="#r6d" x="3600"/><use href="#r6f" x="4200"/><use href="#r62" x="4800"/><use href="#r69" x="5400"/><use href="#r6c" x="6000"/><use href="#r65" x="6600"/><use href="#r2f" x="7800"/><use href="#r77" x="9000"/><use href="#r65" x="9600"/><use href="#r62" x="10200"/><use href="#rb7" x="11400"/><use href="#r63" x="12600"/><use href="#r61" x="13200"/><use href="#r6d" x="13800"/><use href="#r65" x="14400"/><use href="#r72" x="15000"/><use href="#r61" x="15600"/><use href="#r49" x="16800"/><use href="#r51" x="17400"/><use href="#rb7" x="18600"/><use href="#r64" x="19800"/><use href="#r61" x="20400"/><use href="#r74" x="21000"/><use href="#r61" x="21600"/><use href="#r62" x="22200"/><use href="#r61" x="22800"/><use href="#r73" x="23400"/><use href="#r65" x="24000"/><use href="#r6f" x="25200"/><use href="#r70" x="25800"/><use href="#r73" x="26400"/></g><rect x="18.0" y="494.0" width="6.0" height="6.0" fill="#E8742A"/><g fill="#89847B" transform="translate(32.0 501.0) scale(0.00900)"><use href="#r30" x="0"/><use href="#r39" x="600"/></g><g fill="#89847B" transform="translate(56.0 501.0) scale(0.01000)"><use href="#b52" x="0"/><use href="#b45" x="700"/><use href="#b50" x="1400"/><use href="#b4f" x="2100"/><use href="#b53" x="2800"/></g><g fill="#ECE7DD" transform="translate(56.0 520.0) scale(0.01200)"><use href="#r33" x="0"/><use href="#r32" x="600"/><use href="#r70" x="1800"/><use href="#r75" x="2400"/><use href="#r62" x="3000"/><use href="#r6c" x="3600"/><use href="#r69" x="4200"/><use href="#r63" x="4800"/><use href="#rb7" x="6000"/><use href="#r34" x="7200"/><use href="#r39" x="7800"/><use href="#r39" x="8400"/><use href="#r66" x="9600"/><use href="#r69" x="10200"/><use href="#r6c" x="10800"/><use href="#r65" x="11400"/><use href="#r73" x="12000"/><use href="#r6d" x="13200"/><use href="#r65" x="13800"/><use href="#r61" x="14400"/><use href="#r73" x="15000"/><use href="#r75" x="15600"/><use href="#r72" x="16200"/><use href="#r65" x="16800"/><use href="#r64" x="17400"/></g><rect x="18.5" y="543.5" width="5" height="5" fill="none" stroke="#6E9A9A" stroke-width="1.2"/><g fill="#89847B" transform="translate(32.0 550.0) scale(0.00900)"><use href="#r31" x="0"/><use href="#r30" x="600"/></g><g fill="#89847B" transform="translate(56.0 550.0) scale(0.01000)"><use href="#b55" x="0"/><use href="#b50" x="700"/><use href="#b54" x="1400"/><use href="#b49" x="2100"/><use href="#b4d" x="2800"/><use href="#b45" x="3500"/></g><g fill="#ECE7DD" transform="translate(56.0 569.0) scale(0.01200)"><use href="#r73" x="0"/><use href="#r69" x="600"/><use href="#r6e" x="1200"/><use href="#r63" x="1800"/><use href="#r65" x="2400"/><use href="#r32" x="3600"/><use href="#r30" x="4200"/><use href="#r32" x="4800"/><use href="#r31" x="5400"/><use href="#r2d" x="6000"/><use href="#r31" x="6600"/><use href="#r31" x="7200"/><use href="#r2d" x="7800"/><use href="#r30" x="8400"/><use href="#r33" x="9000"/></g><rect x="18.0" y="591.0" width="42.5" height="12.0" fill="#9A410B"/><rect x="63.5" y="591.0" width="42.5" height="12.0" fill="#E8742A"/><rect x="109.0" y="591.0" width="42.5" height="12.0" fill="#F6A864"/><rect x="154.5" y="591.0" width="42.5" height="12.0" fill="#0E3944"/><rect x="200.0" y="591.0" width="42.5" height="12.0" fill="#6E9A9A"/><rect x="245.5" y="591.0" width="42.5" height="12.0" fill="#16263A"/><rect x="291.0" y="591.0" width="42.5" height="12.0" fill="#A8A397"/><rect x="336.5" y="591.0" width="42.5" height="12.0" fill="#ECE7DD"/><rect x="18.0" y="618.0" width="6.0" height="6.0" fill="#E8742A"/><g fill="#A8A397" transform="translate(31.0 625.0) scale(0.00900)"><use href="#r49" x="0"/><use href="#r4e" x="689"/><use href="#r41" x="2067"/><use href="#r50" x="3444"/><use href="#r55" x="4133"/><use href="#r42" x="4822"/><use href="#r4c" x="5511"/><use href="#r49" x="6200"/><use href="#r43" x="6889"/><use href="#r52" x="8267"/><use href="#r45" x="8956"/><use href="#r50" x="9644"/><use href="#r4f" x="10333"/><use href="#r53" x="11022"/><use href="#r49" x="11711"/><use href="#r54" x="12400"/><use href="#r4f" x="13089"/><use href="#r52" x="13778"/><use href="#r59" x="14467"/></g><rect x="18.5" y="634.5" width="5" height="5" fill="none" stroke="#6E9A9A" stroke-width="1.2"/><g fill="#A8A397" transform="translate(31.0 641.0) scale(0.00900)"><use href="#r50" x="0"/><use href="#r52" x="689"/><use href="#r4f" x="1378"/><use href="#r46" x="2067"/><use href="#r45" x="2756"/><use href="#r53" x="3444"/><use href="#r53" x="4133"/><use href="#r49" x="4822"/><use href="#r4f" x="5511"/><use href="#r4e" x="6200"/><use href="#r41" x="6889"/><use href="#r4c" x="7578"/><use href="#r2f" x="8956"/><use href="#r45" x="10333"/><use href="#r4e" x="11022"/><use href="#r56" x="11711"/><use href="#r49" x="12400"/><use href="#r52" x="13089"/><use href="#r4f" x="13778"/><use href="#r4e" x="14467"/><use href="#r4d" x="15156"/><use href="#r45" x="15844"/><use href="#r4e" x="16533"/><use href="#r54" x="17222"/><use href="#r52" x="18600"/><use href="#r45" x="19289"/><use href="#r43" x="19978"/><use href="#r4f" x="20667"/><use href="#r52" x="21356"/><use href="#r44" x="22044"/></g><rect x="0.5" y="0.5" width="399.0" height="648.0" fill="none" stroke="#2A2C33" stroke-width="1"/></svg>
