<svg xmlns="http://www.w3.org/2000/svg" width="880" height="344" viewBox="0 0 880 344" role="img" aria-labelledby="t d">
  <title id="t">System information panel for Osama Anwar</title>
  <desc id="d">A fastfetch-style panel beside a wireframe torus rendered in 3D. Host Windows 11, WSL2 and Linux. Shell PowerShell and bash. Current role Database Administrator at The Bank of Punjab. Previous role Camera and Image Evaluation Engineer. 32 public repositories containing 500 tracked files. Languages Python, HTML, CSS, JavaScript and Inno Setup.</desc>
<rect width="880" height="344" rx="10" fill="#05090F"/>
  <path d="M0.5 10.5a10 10 0 0 1 10-10h859a10 10 0 0 1 10 10V34H0.5z"
        fill="#161B22"/>
  <line x1="0.5" y1="34" x2="879.5" y2="34" stroke="#AFB8C1" stroke-width="1"/>
  <circle cx="20" cy="17.5" r="5" fill="#F85149"/>
  <circle cx="38" cy="17.5" r="5" fill="#E3B341"/>
  <circle cx="56" cy="17.5" r="5" fill="#3FB950"/>
<text x="440.0" y="22" font-family="ui-monospace, SFMono-Regular, 'SF Mono', Menlo, Consolas, 'Liberation Mono', monospace" font-size="11.5" font-weight="normal" fill="#8B949E" text-anchor="middle" xml:space="preserve">osama@github: ~ — fastfetch</text>

<defs><radialGradient id="lensglow" cx="0.5" cy="0.5" r="0.5">
      <stop offset="0" stop-color="#2DD4BF" stop-opacity="0.22"/>
      <stop offset="1" stop-color="#2DD4BF" stop-opacity="0"/>
    </radialGradient></defs>
<ellipse cx="118" cy="190" rx="118" ry="112" fill="url(#lensglow)"/>
<line x1="105.5" y1="225.7" x2="108.5" y2="216.3" stroke="#2a507b" stroke-width="0.65" opacity="0.33"/><line x1="124.3" y1="228.1" x2="105.5" y2="225.7" stroke="#2a517c" stroke-width="0.65" opacity="0.33"/><line x1="123.5" y1="218.1" x2="108.5" y2="216.3" stroke="#2a517c" stroke-width="0.66" opacity="0.34"/><line x1="124.3" y1="228.1" x2="123.5" y2="218.1" stroke="#2a527c" stroke-width="0.66" opacity="0.34"/><line x1="108.5" y1="216.3" x2="95.1" y2="209.4" stroke="#2a537d" stroke-width="0.66" opacity="0.34"/><line x1="105.5" y1="225.7" x2="88.6" y2="217.2" stroke="#2a537d" stroke-width="0.66" opacity="0.34"/><line x1="88.6" y1="217.2" x2="95.1" y2="209.4" stroke="#2a567e" stroke-width="0.68" opacity="0.36"/><line x1="138.2" y1="214.6" x2="123.5" y2="218.1" stroke="#2a567e" stroke-width="0.68" opacity="0.36"/><line x1="142.9" y1="223.9" x2="124.3" y2="228.1" stroke="#2a577e" stroke-width="0.68" opacity="0.36"/><line x1="103.0" y1="234.8" x2="105.5" y2="225.7" stroke="#2a587f" stroke-width="0.69" opacity="0.37"/><line x1="108.5" y1="216.3" x2="110.5" y2="210.8" stroke="#2a5980" stroke-width="0.69" opacity="0.37"/><line x1="95.1" y1="209.4" x2="85.0" y2="198.1" stroke="#2a5a80" stroke-width="0.70" opacity="0.38"/><line x1="124.3" y1="237.5" x2="124.3" y2="228.1" stroke="#2a5b80" stroke-width="0.70" opacity="0.38"/><line x1="142.9" y1="223.9" x2="138.2" y2="214.6" stroke="#2a5b80" stroke-width="0.70" opacity="0.38"/><line x1="123.5" y1="218.1" x2="122.3" y2="212.2" stroke="#2a5b81" stroke-width="0.70" opacity="0.38"/><line x1="88.6" y1="217.2" x2="75.6" y2="203.2" stroke="#2a5c81" stroke-width="0.71" opacity="0.39"/><line x1="95.1" y1="209.4" x2="100.1" y2="205.3" stroke="#2a5e82" stroke-width="0.71" opacity="0.39"/><line x1="83.6" y1="225.2" x2="88.6" y2="217.2" stroke="#2a5f83" stroke-width="0.72" opacity="0.40"/><line x1="150.6" y1="205.8" x2="138.2" y2="214.6" stroke="#2a6083" stroke-width="0.72" opacity="0.40"/><line x1="75.6" y1="203.2" x2="85.0" y2="198.1" stroke="#2a6184" stroke-width="0.73" opacity="0.41"/><line x1="138.2" y1="214.6" x2="133.7" y2="209.3" stroke="#2a6184" stroke-width="0.73" opacity="0.41"/><line x1="124.3" y1="237.5" x2="103.0" y2="234.8" stroke="#2a6284" stroke-width="0.73" opacity="0.41"/><line x1="122.3" y1="212.2" x2="110.5" y2="210.8" stroke="#2a6385" stroke-width="0.74" opacity="0.42"/><line x1="158.8" y1="213.2" x2="142.9" y2="223.9" stroke="#2a6385" stroke-width="0.74" opacity="0.42"/><line x1="110.5" y1="210.8" x2="100.1" y2="205.3" stroke="#2a6485" stroke-width="0.74" opacity="0.42"/><line x1="103.0" y1="234.8" x2="83.6" y2="225.2" stroke="#2a6485" stroke-width="0.74" opacity="0.42"/><line x1="145.5" y1="233.0" x2="142.9" y2="223.9" stroke="#2a6486" stroke-width="0.74" opacity="0.43"/><line x1="85.0" y1="198.1" x2="80.0" y2="183.7" stroke="#2b6686" stroke-width="0.75" opacity="0.43"/><line x1="133.7" y1="209.3" x2="122.3" y2="212.2" stroke="#2b6687" stroke-width="0.75" opacity="0.43"/><line x1="85.0" y1="198.1" x2="92.4" y2="196.5" stroke="#2b6687" stroke-width="0.75" opacity="0.44"/><line x1="145.5" y1="233.0" x2="124.3" y2="237.5" stroke="#2b6887" stroke-width="0.76" opacity="0.44"/><line x1="158.8" y1="213.2" x2="150.6" y2="205.8" stroke="#2b6888" stroke-width="0.76" opacity="0.44"/><line x1="100.1" y1="205.3" x2="92.4" y2="196.5" stroke="#2b6a88" stroke-width="0.77" opacity="0.45"/><line x1="75.6" y1="203.2" x2="68.7" y2="185.1" stroke="#2b6b89" stroke-width="0.77" opacity="0.46"/><line x1="68.6" y1="209.6" x2="75.6" y2="203.2" stroke="#2b6c89" stroke-width="0.78" opacity="0.46"/><line x1="150.6" y1="205.8" x2="143.2" y2="202.4" stroke="#2b6c89" stroke-width="0.78" opacity="0.46"/><line x1="102.2" y1="238.5" x2="103.0" y2="234.8" stroke="#2b6d8a" stroke-width="0.78" opacity="0.47"/><line x1="158.6" y1="192.6" x2="150.6" y2="205.8" stroke="#2b6d8a" stroke-width="0.78" opacity="0.47"/><line x1="143.2" y1="202.4" x2="133.7" y2="209.3" stroke="#2b6e8a" stroke-width="0.79" opacity="0.47"/><line x1="83.6" y1="225.2" x2="68.6" y2="209.6" stroke="#2b6e8b" stroke-width="0.79" opacity="0.47"/><line x1="110.5" y1="210.8" x2="110.4" y2="212.7" stroke="#2b6f8b" stroke-width="0.79" opacity="0.47"/><line x1="123.4" y1="241.3" x2="124.3" y2="237.5" stroke="#2b6f8b" stroke-width="0.79" opacity="0.48"/><line x1="122.3" y1="212.2" x2="121.2" y2="214.1" stroke="#2b708b" stroke-width="0.79" opacity="0.48"/><line x1="68.7" y1="185.1" x2="80.0" y2="183.7" stroke="#2b708c" stroke-width="0.80" opacity="0.48"/><line x1="100.1" y1="205.3" x2="100.7" y2="207.7" stroke="#2b728c" stroke-width="0.80" opacity="0.49"/><line x1="80.0" y1="183.7" x2="88.7" y2="185.4" stroke="#2b728d" stroke-width="0.81" opacity="0.49"/><line x1="92.4" y1="196.5" x2="88.7" y2="185.4" stroke="#2b738d" stroke-width="0.81" opacity="0.49"/><line x1="83.0" y1="229.1" x2="83.6" y2="225.2" stroke="#2b738d" stroke-width="0.81" opacity="0.50"/><line x1="169.6" y1="196.6" x2="158.8" y2="213.2" stroke="#2b748e" stroke-width="0.81" opacity="0.50"/><line x1="163.9" y1="221.1" x2="158.8" y2="213.2" stroke="#2b748e" stroke-width="0.82" opacity="0.50"/><line x1="80.0" y1="183.7" x2="81.5" y2="168.1" stroke="#2b758e" stroke-width="0.82" opacity="0.50"/><line x1="133.7" y1="209.3" x2="131.7" y2="211.5" stroke="#2b758e" stroke-width="0.82" opacity="0.50"/><line x1="163.9" y1="221.1" x2="145.5" y2="233.0" stroke="#2b768e" stroke-width="0.82" opacity="0.51"/><line x1="149.0" y1="192.2" x2="143.2" y2="202.4" stroke="#2b788f" stroke-width="0.83" opacity="0.52"/><line x1="92.4" y1="196.5" x2="93.6" y2="199.6" stroke="#2b7990" stroke-width="0.84" opacity="0.52"/><line x1="169.6" y1="196.6" x2="158.6" y2="192.6" stroke="#2b7990" stroke-width="0.84" opacity="0.52"/><line x1="158.6" y1="192.6" x2="149.0" y2="192.2" stroke="#2b7990" stroke-width="0.84" opacity="0.52"/><line x1="144.3" y1="236.9" x2="145.5" y2="233.0" stroke="#2b7990" stroke-width="0.84" opacity="0.52"/><line x1="123.4" y1="241.3" x2="102.2" y2="238.5" stroke="#2b7a91" stroke-width="0.84" opacity="0.53"/><line x1="121.2" y1="214.1" x2="110.4" y2="212.7" stroke="#2b7b91" stroke-width="0.85" opacity="0.53"/><line x1="160.1" y1="176.7" x2="158.6" y2="192.6" stroke="#2b7c92" stroke-width="0.85" opacity="0.54"/><line x1="110.4" y1="212.7" x2="100.7" y2="207.7" stroke="#2b7c92" stroke-width="0.85" opacity="0.54"/><line x1="102.2" y1="238.5" x2="83.0" y2="229.1" stroke="#2b7c92" stroke-width="0.85" opacity="0.54"/><line x1="68.7" y1="185.1" x2="70.0" y2="164.9" stroke="#2b7d92" stroke-width="0.86" opacity="0.54"/><line x1="88.7" y1="185.4" x2="90.2" y2="173.6" stroke="#2b7d92" stroke-width="0.86" opacity="0.54"/><line x1="143.2" y1="202.4" x2="140.4" y2="205.2" stroke="#2b7d92" stroke-width="0.86" opacity="0.54"/><line x1="60.2" y1="189.0" x2="68.7" y2="185.1" stroke="#2b7e93" stroke-width="0.86" opacity="0.54"/><line x1="131.7" y1="211.5" x2="121.2" y2="214.1" stroke="#2b7e93" stroke-width="0.86" opacity="0.55"/><line x1="68.6" y1="209.6" x2="60.2" y2="189.0" stroke="#2b7e93" stroke-width="0.86" opacity="0.55"/><line x1="81.5" y1="168.1" x2="90.2" y2="173.6" stroke="#2b8093" stroke-width="0.87" opacity="0.55"/><line x1="144.3" y1="236.9" x2="123.4" y2="241.3" stroke="#2b8094" stroke-width="0.87" opacity="0.56"/><line x1="68.1" y1="213.8" x2="68.6" y2="209.6" stroke="#2b8094" stroke-width="0.87" opacity="0.56"/><line x1="100.7" y1="207.7" x2="93.6" y2="199.6" stroke="#2b8194" stroke-width="0.87" opacity="0.56"/><line x1="70.0" y1="164.9" x2="81.5" y2="168.1" stroke="#2b8194" stroke-width="0.87" opacity="0.56"/><line x1="104.1" y1="233.6" x2="102.2" y2="238.5" stroke="#2b8295" stroke-width="0.88" opacity="0.57"/><line x1="88.7" y1="185.4" x2="90.3" y2="189.5" stroke="#2b8295" stroke-width="0.88" opacity="0.57"/><line x1="149.9" y1="180.1" x2="149.0" y2="192.2" stroke="#2b8395" stroke-width="0.88" opacity="0.57"/><line x1="81.5" y1="168.1" x2="90.1" y2="154.0" stroke="#2b8395" stroke-width="0.88" opacity="0.57"/><line x1="110.4" y1="212.7" x2="107.7" y2="222.3" stroke="#2b8395" stroke-width="0.88" opacity="0.57"/><line x1="122.0" y1="235.9" x2="123.4" y2="241.3" stroke="#2b8496" stroke-width="0.89" opacity="0.57"/><line x1="121.2" y1="214.1" x2="121.0" y2="224.0" stroke="#2b8496" stroke-width="0.89" opacity="0.58"/><line x1="140.4" y1="205.2" x2="131.7" y2="211.5" stroke="#2b8596" stroke-width="0.89" opacity="0.58"/><line x1="83.0" y1="229.1" x2="68.1" y2="213.8" stroke="#2b8697" stroke-width="0.89" opacity="0.58"/><line x1="160.1" y1="176.7" x2="149.9" y2="180.1" stroke="#2b8697" stroke-width="0.89" opacity="0.58"/><line x1="172.3" y1="176.0" x2="169.6" y2="196.6" stroke="#2b8797" stroke-width="0.90" opacity="0.59"/><line x1="100.7" y1="207.7" x2="95.8" y2="216.3" stroke="#2b8797" stroke-width="0.90" opacity="0.59"/><line x1="88.0" y1="225.6" x2="83.0" y2="229.1" stroke="#2b8898" stroke-width="0.90" opacity="0.59"/><line x1="176.7" y1="202.5" x2="169.6" y2="196.6" stroke="#2b8898" stroke-width="0.90" opacity="0.59"/><line x1="149.0" y1="192.2" x2="145.6" y2="195.9" stroke="#2b8898" stroke-width="0.90" opacity="0.59"/><line x1="176.7" y1="202.5" x2="163.9" y2="221.1" stroke="#2b8898" stroke-width="0.90" opacity="0.59"/><line x1="90.2" y1="173.6" x2="96.9" y2="163.2" stroke="#2b8898" stroke-width="0.90" opacity="0.59"/><line x1="93.6" y1="199.6" x2="90.3" y2="189.5" stroke="#2b8998" stroke-width="0.91" opacity="0.60"/><line x1="162.6" y1="225.4" x2="163.9" y2="221.1" stroke="#2b8998" stroke-width="0.91" opacity="0.60"/><line x1="154.2" y1="160.8" x2="160.1" y2="176.7" stroke="#2b8a99" stroke-width="0.91" opacity="0.60"/><line x1="172.3" y1="176.0" x2="160.1" y2="176.7" stroke="#2b8a99" stroke-width="0.91" opacity="0.60"/><line x1="131.7" y1="211.5" x2="134.0" y2="220.9" stroke="#2b8a99" stroke-width="0.91" opacity="0.60"/><line x1="107.7" y1="222.3" x2="104.1" y2="233.6" stroke="#2b8c9a" stroke-width="0.92" opacity="0.61"/><line x1="90.1" y1="154.0" x2="96.9" y2="163.2" stroke="#2b8c9a" stroke-width="0.92" opacity="0.61"/><line x1="122.0" y1="235.9" x2="104.1" y2="233.6" stroke="#2b8c9a" stroke-width="0.92" opacity="0.61"/><line x1="121.0" y1="224.0" x2="107.7" y2="222.3" stroke="#2b8c9a" stroke-width="0.92" opacity="0.61"/><line x1="162.6" y1="225.4" x2="144.3" y2="236.9" stroke="#2b8d9a" stroke-width="0.93" opacity="0.61"/><line x1="139.5" y1="232.1" x2="144.3" y2="236.9" stroke="#2b8d9a" stroke-width="0.93" opacity="0.61"/><line x1="145.1" y1="168.3" x2="149.9" y2="180.1" stroke="#2b8d9a" stroke-width="0.93" opacity="0.62"/><line x1="90.2" y1="173.6" x2="91.7" y2="178.8" stroke="#2b8d9a" stroke-width="0.93" opacity="0.62"/><line x1="121.0" y1="224.0" x2="122.0" y2="235.9" stroke="#2b8d9a" stroke-width="0.93" opacity="0.62"/><line x1="145.6" y1="195.9" x2="140.4" y2="205.2" stroke="#2b8d9b" stroke-width="0.93" opacity="0.62"/><line x1="107.7" y1="222.3" x2="95.8" y2="216.3" stroke="#2b8e9b" stroke-width="0.93" opacity="0.62"/><line x1="104.1" y1="233.6" x2="88.0" y2="225.6" stroke="#2b8e9b" stroke-width="0.93" opacity="0.62"/><line x1="93.6" y1="199.6" x2="86.9" y2="206.5" stroke="#2b8e9b" stroke-width="0.93" opacity="0.62"/><line x1="90.1" y1="154.0" x2="104.9" y2="144.6" stroke="#2b8f9b" stroke-width="0.94" opacity="0.63"/><line x1="70.0" y1="164.9" x2="80.6" y2="146.3" stroke="#2b8f9c" stroke-width="0.94" opacity="0.63"/><line x1="95.8" y1="216.3" x2="88.0" y2="225.6" stroke="#2b909c" stroke-width="0.94" opacity="0.63"/><line x1="134.0" y1="220.9" x2="121.0" y2="224.0" stroke="#2b909c" stroke-width="0.94" opacity="0.63"/><line x1="154.2" y1="160.8" x2="145.1" y2="168.3" stroke="#2b909c" stroke-width="0.94" opacity="0.63"/><line x1="139.5" y1="232.1" x2="122.0" y2="235.9" stroke="#2b919c" stroke-width="0.94" opacity="0.63"/><line x1="96.9" y1="163.2" x2="108.2" y2="156.4" stroke="#2b919c" stroke-width="0.95" opacity="0.63"/><line x1="80.6" y1="146.3" x2="90.1" y2="154.0" stroke="#2b919c" stroke-width="0.95" opacity="0.64"/><line x1="61.0" y1="165.8" x2="70.0" y2="164.9" stroke="#2b919d" stroke-width="0.95" opacity="0.64"/><line x1="149.9" y1="180.1" x2="146.3" y2="184.9" stroke="#2b929d" stroke-width="0.95" opacity="0.64"/><line x1="60.2" y1="189.0" x2="61.0" y2="165.8" stroke="#2c929d" stroke-width="0.95" opacity="0.64"/><line x1="90.3" y1="189.5" x2="91.7" y2="178.8" stroke="#2c929d" stroke-width="0.95" opacity="0.64"/><line x1="140.4" y1="205.2" x2="144.8" y2="213.4" stroke="#2c929d" stroke-width="0.95" opacity="0.64"/><line x1="59.7" y1="193.6" x2="60.2" y2="189.0" stroke="#2c939d" stroke-width="0.95" opacity="0.64"/><line x1="75.7" y1="212.7" x2="68.1" y2="213.8" stroke="#2c939e" stroke-width="0.95" opacity="0.64"/><line x1="95.8" y1="216.3" x2="86.9" y2="206.5" stroke="#2c939e" stroke-width="0.95" opacity="0.65"/><line x1="141.0" y1="148.3" x2="154.2" y2="160.8" stroke="#2c939e" stroke-width="0.96" opacity="0.65"/><line x1="134.0" y1="220.9" x2="139.5" y2="232.1" stroke="#2c949e" stroke-width="0.96" opacity="0.65"/><line x1="135.1" y1="159.2" x2="145.1" y2="168.3" stroke="#2c949e" stroke-width="0.96" opacity="0.65"/><line x1="104.9" y1="144.6" x2="108.2" y2="156.4" stroke="#2c949e" stroke-width="0.96" opacity="0.65"/><line x1="68.1" y1="213.8" x2="59.7" y2="193.6" stroke="#2c959e" stroke-width="0.96" opacity="0.65"/><line x1="88.0" y1="225.6" x2="75.7" y2="212.7" stroke="#2c959f" stroke-width="0.96" opacity="0.65"/><line x1="96.9" y1="163.2" x2="97.9" y2="169.5" stroke="#2c969f" stroke-width="0.97" opacity="0.66"/><line x1="104.9" y1="144.6" x2="123.3" y2="142.5" stroke="#2c969f" stroke-width="0.97" opacity="0.66"/><line x1="108.2" y1="156.4" x2="121.9" y2="154.9" stroke="#2c969f" stroke-width="0.97" opacity="0.66"/><line x1="146.3" y1="184.9" x2="145.6" y2="195.9" stroke="#2c979f" stroke-width="0.97" opacity="0.66"/><line x1="141.0" y1="148.3" x2="135.1" y2="159.2" stroke="#2c97a0" stroke-width="0.97" opacity="0.66"/><line x1="90.3" y1="189.5" x2="82.5" y2="194.1" stroke="#2c97a0" stroke-width="0.97" opacity="0.66"/><line x1="144.8" y1="213.4" x2="134.0" y2="220.9" stroke="#2c97a0" stroke-width="0.97" opacity="0.66"/><line x1="165.0" y1="155.0" x2="154.2" y2="160.8" stroke="#2c97a0" stroke-width="0.97" opacity="0.67"/><line x1="165.0" y1="155.0" x2="172.3" y2="176.0" stroke="#2c97a0" stroke-width="0.97" opacity="0.67"/><line x1="121.9" y1="154.9" x2="135.1" y2="159.2" stroke="#2c98a0" stroke-width="0.98" opacity="0.67"/><line x1="123.3" y1="142.5" x2="141.0" y2="148.3" stroke="#2c98a0" stroke-width="0.98" opacity="0.67"/><line x1="86.9" y1="206.5" x2="75.7" y2="212.7" stroke="#2c98a0" stroke-width="0.98" opacity="0.67"/><line x1="123.3" y1="142.5" x2="121.9" y2="154.9" stroke="#2c98a0" stroke-width="0.98" opacity="0.67"/><line x1="145.1" y1="168.3" x2="141.8" y2="174.3" stroke="#2c9aa1" stroke-width="0.99" opacity="0.68"/><line x1="154.4" y1="222.3" x2="162.6" y2="225.4" stroke="#2c9aa1" stroke-width="0.99" opacity="0.68"/><line x1="154.4" y1="222.3" x2="139.5" y2="232.1" stroke="#2c9aa1" stroke-width="0.99" opacity="0.68"/><line x1="180.4" y1="178.9" x2="172.3" y2="176.0" stroke="#2c9ba2" stroke-width="0.99" opacity="0.68"/><line x1="91.7" y1="178.8" x2="97.9" y2="169.5" stroke="#2c9ba2" stroke-width="0.99" opacity="0.68"/><line x1="86.9" y1="206.5" x2="82.5" y2="194.1" stroke="#2c9ca2" stroke-width="1.00" opacity="0.69"/><line x1="180.4" y1="178.9" x2="176.7" y2="202.5" stroke="#2c9ca2" stroke-width="1.00" opacity="0.69"/><line x1="145.6" y1="195.9" x2="151.5" y2="202.1" stroke="#2c9ca2" stroke-width="1.00" opacity="0.69"/><line x1="175.1" y1="207.1" x2="176.7" y2="202.5" stroke="#2c9ca2" stroke-width="1.00" opacity="0.69"/><line x1="99.9" y1="133.5" x2="104.9" y2="144.6" stroke="#2c9ca2" stroke-width="1.00" opacity="0.69"/><line x1="108.2" y1="156.4" x2="108.2" y2="163.5" stroke="#2c9da3" stroke-width="1.00" opacity="0.69"/><line x1="175.1" y1="207.1" x2="162.6" y2="225.4" stroke="#2c9da3" stroke-width="1.00" opacity="0.69"/><line x1="144.8" y1="213.4" x2="154.4" y2="222.3" stroke="#2c9ea3" stroke-width="1.01" opacity="0.70"/><line x1="80.6" y1="146.3" x2="99.9" y2="133.5" stroke="#2c9ea3" stroke-width="1.01" opacity="0.70"/><line x1="141.8" y1="174.3" x2="146.3" y2="184.9" stroke="#2c9fa4" stroke-width="1.01" opacity="0.70"/><line x1="135.1" y1="159.2" x2="132.7" y2="166.1" stroke="#2ca0a4" stroke-width="1.01" opacity="0.70"/><line x1="147.9" y1="138.2" x2="141.0" y2="148.3" stroke="#2ca0a4" stroke-width="1.01" opacity="0.71"/><line x1="121.9" y1="154.9" x2="120.6" y2="162.2" stroke="#2ca1a5" stroke-width="1.02" opacity="0.71"/><line x1="75.7" y1="212.7" x2="69.2" y2="196.0" stroke="#2ca1a5" stroke-width="1.02" opacity="0.71"/><line x1="151.5" y1="202.1" x2="144.8" y2="213.4" stroke="#2ca1a5" stroke-width="1.02" opacity="0.71"/><line x1="91.7" y1="178.8" x2="83.9" y2="180.9" stroke="#2ca2a5" stroke-width="1.02" opacity="0.71"/><line x1="124.3" y1="130.3" x2="123.3" y2="142.5" stroke="#2ca2a5" stroke-width="1.02" opacity="0.71"/><line x1="69.2" y1="196.0" x2="59.7" y2="193.6" stroke="#2ca3a6" stroke-width="1.03" opacity="0.72"/><line x1="97.9" y1="169.5" x2="108.2" y2="163.5" stroke="#2ca3a6" stroke-width="1.03" opacity="0.72"/><line x1="72.9" y1="144.0" x2="80.6" y2="146.3" stroke="#2ca4a6" stroke-width="1.03" opacity="0.72"/><line x1="147.9" y1="138.2" x2="165.0" y2="155.0" stroke="#2ca4a6" stroke-width="1.03" opacity="0.72"/><line x1="82.5" y1="194.1" x2="69.2" y2="196.0" stroke="#2ca4a7" stroke-width="1.03" opacity="0.73"/><line x1="61.0" y1="165.8" x2="72.9" y2="144.0" stroke="#2ca6a7" stroke-width="1.04" opacity="0.73"/><line x1="132.7" y1="166.1" x2="141.8" y2="174.3" stroke="#2ca6a7" stroke-width="1.04" opacity="0.73"/><line x1="60.6" y1="171.0" x2="61.0" y2="165.8" stroke="#2ca6a7" stroke-width="1.04" opacity="0.74"/><line x1="146.3" y1="184.9" x2="152.6" y2="188.6" stroke="#2ca7a8" stroke-width="1.04" opacity="0.74"/><line x1="82.5" y1="194.1" x2="83.9" y2="180.9" stroke="#2ca7a8" stroke-width="1.04" opacity="0.74"/><line x1="59.7" y1="193.6" x2="60.6" y2="171.0" stroke="#2ca7a8" stroke-width="1.04" opacity="0.74"/><line x1="99.9" y1="133.5" x2="124.3" y2="130.3" stroke="#2ca8a8" stroke-width="1.05" opacity="0.74"/><line x1="108.2" y1="163.5" x2="120.6" y2="162.2" stroke="#2ca8a8" stroke-width="1.05" opacity="0.74"/><line x1="164.3" y1="207.2" x2="154.4" y2="222.3" stroke="#2ca8a8" stroke-width="1.05" opacity="0.74"/><line x1="120.6" y1="162.2" x2="132.7" y2="166.1" stroke="#2ca9a9" stroke-width="1.05" opacity="0.75"/><line x1="124.3" y1="130.3" x2="147.9" y2="138.2" stroke="#2caaa9" stroke-width="1.06" opacity="0.75"/><line x1="172.3" y1="154.2" x2="165.0" y2="155.0" stroke="#2cabaa" stroke-width="1.06" opacity="0.76"/><line x1="151.5" y1="202.1" x2="164.3" y2="207.2" stroke="#2cabaa" stroke-width="1.06" opacity="0.76"/><line x1="164.3" y1="207.2" x2="175.1" y2="207.1" stroke="#2cabaa" stroke-width="1.06" opacity="0.76"/><line x1="97.9" y1="169.5" x2="91.5" y2="169.1" stroke="#2cabaa" stroke-width="1.06" opacity="0.76"/><line x1="152.6" y1="188.6" x2="151.5" y2="202.1" stroke="#2cacab" stroke-width="1.07" opacity="0.76"/><line x1="172.3" y1="154.2" x2="180.4" y2="178.9" stroke="#2caeac" stroke-width="1.08" opacity="0.77"/><line x1="141.8" y1="174.3" x2="147.1" y2="175.2" stroke="#2cafac" stroke-width="1.08" opacity="0.78"/><line x1="69.2" y1="196.0" x2="70.4" y2="177.6" stroke="#2cafac" stroke-width="1.08" opacity="0.78"/><line x1="178.6" y1="184.1" x2="180.4" y2="178.9" stroke="#2cb0ac" stroke-width="1.08" opacity="0.78"/><line x1="178.6" y1="184.1" x2="175.1" y2="207.1" stroke="#2cb0ac" stroke-width="1.09" opacity="0.78"/><line x1="95.3" y1="128.7" x2="99.9" y2="133.5" stroke="#2cb1ad" stroke-width="1.09" opacity="0.78"/><line x1="83.9" y1="180.9" x2="91.5" y2="169.1" stroke="#2cb1ad" stroke-width="1.09" opacity="0.79"/><line x1="83.9" y1="180.9" x2="70.4" y2="177.6" stroke="#2cb2ad" stroke-width="1.09" opacity="0.79"/><line x1="108.2" y1="163.5" x2="104.4" y2="161.4" stroke="#2cb2ae" stroke-width="1.10" opacity="0.79"/><line x1="70.4" y1="177.6" x2="60.6" y2="171.0" stroke="#2cb4ae" stroke-width="1.10" opacity="0.80"/><line x1="132.7" y1="166.1" x2="135.6" y2="164.8" stroke="#2cb4af" stroke-width="1.11" opacity="0.80"/><line x1="152.3" y1="134.2" x2="147.9" y2="138.2" stroke="#2cb5af" stroke-width="1.11" opacity="0.80"/><line x1="120.6" y1="162.2" x2="120.3" y2="159.8" stroke="#2cb5af" stroke-width="1.11" opacity="0.81"/><line x1="72.9" y1="144.0" x2="95.3" y2="128.7" stroke="#2cb6af" stroke-width="1.11" opacity="0.81"/><line x1="147.1" y1="175.2" x2="152.6" y2="188.6" stroke="#2cb6b0" stroke-width="1.11" opacity="0.81"/><line x1="166.5" y1="188.4" x2="164.3" y2="207.2" stroke="#2cb7b0" stroke-width="1.12" opacity="0.81"/><line x1="124.2" y1="124.8" x2="124.3" y2="130.3" stroke="#2cb7b0" stroke-width="1.12" opacity="0.81"/><line x1="152.6" y1="188.6" x2="166.5" y2="188.4" stroke="#2cb8b1" stroke-width="1.12" opacity="0.82"/><line x1="72.3" y1="149.8" x2="72.9" y2="144.0" stroke="#2cb8b1" stroke-width="1.12" opacity="0.82"/><line x1="60.6" y1="171.0" x2="72.3" y2="149.8" stroke="#2cb9b1" stroke-width="1.13" opacity="0.82"/><line x1="91.5" y1="169.1" x2="104.4" y2="161.4" stroke="#2cbab2" stroke-width="1.13" opacity="0.83"/><line x1="166.5" y1="188.4" x2="178.6" y2="184.1" stroke="#2cbcb2" stroke-width="1.14" opacity="0.84"/><line x1="152.3" y1="134.2" x2="172.3" y2="154.2" stroke="#2cbcb3" stroke-width="1.14" opacity="0.84"/><line x1="91.5" y1="169.1" x2="80.4" y2="160.9" stroke="#2cbeb3" stroke-width="1.15" opacity="0.84"/><line x1="135.6" y1="164.8" x2="147.1" y2="175.2" stroke="#2cbeb3" stroke-width="1.15" opacity="0.85"/><line x1="70.4" y1="177.6" x2="80.4" y2="160.9" stroke="#2cbeb4" stroke-width="1.15" opacity="0.85"/><line x1="170.5" y1="160.0" x2="172.3" y2="154.2" stroke="#2dc0b4" stroke-width="1.16" opacity="0.85"/><line x1="95.3" y1="128.7" x2="124.2" y2="124.8" stroke="#2dc0b5" stroke-width="1.16" opacity="0.86"/><line x1="104.4" y1="161.4" x2="120.3" y2="159.8" stroke="#2dc0b5" stroke-width="1.16" opacity="0.86"/><line x1="170.5" y1="160.0" x2="178.6" y2="184.1" stroke="#2dc1b5" stroke-width="1.16" opacity="0.86"/><line x1="120.3" y1="159.8" x2="135.6" y2="164.8" stroke="#2dc1b5" stroke-width="1.16" opacity="0.86"/><line x1="124.2" y1="124.8" x2="152.3" y2="134.2" stroke="#2dc2b6" stroke-width="1.17" opacity="0.87"/><line x1="147.1" y1="175.2" x2="159.5" y2="169.3" stroke="#2dc3b6" stroke-width="1.17" opacity="0.87"/><line x1="80.4" y1="160.9" x2="72.3" y2="149.8" stroke="#2dc3b6" stroke-width="1.17" opacity="0.87"/><line x1="159.5" y1="169.3" x2="166.5" y2="188.4" stroke="#2dc4b7" stroke-width="1.18" opacity="0.88"/><line x1="94.4" y1="135.0" x2="95.3" y2="128.7" stroke="#2dc5b7" stroke-width="1.18" opacity="0.88"/><line x1="104.4" y1="161.4" x2="98.4" y2="149.5" stroke="#2dc6b8" stroke-width="1.19" opacity="0.89"/><line x1="72.3" y1="149.8" x2="94.4" y2="135.0" stroke="#2dc8b9" stroke-width="1.19" opacity="0.89"/><line x1="135.6" y1="164.8" x2="143.3" y2="154.1" stroke="#2dc9b9" stroke-width="1.20" opacity="0.90"/><line x1="159.5" y1="169.3" x2="170.5" y2="160.0" stroke="#2dc9ba" stroke-width="1.20" opacity="0.90"/><line x1="150.7" y1="140.5" x2="152.3" y2="134.2" stroke="#2dc9ba" stroke-width="1.20" opacity="0.90"/><line x1="80.4" y1="160.9" x2="98.4" y2="149.5" stroke="#2dcaba" stroke-width="1.20" opacity="0.90"/><line x1="120.3" y1="159.8" x2="121.2" y2="146.8" stroke="#2dcbba" stroke-width="1.21" opacity="0.91"/><line x1="122.9" y1="131.3" x2="124.2" y2="124.8" stroke="#2dccbb" stroke-width="1.21" opacity="0.91"/><line x1="150.7" y1="140.5" x2="170.5" y2="160.0" stroke="#2dcdbc" stroke-width="1.22" opacity="0.92"/><line x1="143.3" y1="154.1" x2="159.5" y2="169.3" stroke="#2dcebc" stroke-width="1.22" opacity="0.92"/><line x1="98.4" y1="149.5" x2="94.4" y2="135.0" stroke="#2dcebc" stroke-width="1.22" opacity="0.92"/><line x1="94.4" y1="135.0" x2="122.9" y2="131.3" stroke="#2dd1bd" stroke-width="1.24" opacity="0.94"/><line x1="98.4" y1="149.5" x2="121.2" y2="146.8" stroke="#2dd1bd" stroke-width="1.24" opacity="0.94"/><line x1="143.3" y1="154.1" x2="150.7" y2="140.5" stroke="#2dd2be" stroke-width="1.24" opacity="0.94"/><line x1="121.2" y1="146.8" x2="143.3" y2="154.1" stroke="#2dd3be" stroke-width="1.24" opacity="0.94"/><line x1="122.9" y1="131.3" x2="150.7" y2="140.5" stroke="#2dd3be" stroke-width="1.25" opacity="0.95"/><line x1="121.2" y1="146.8" x2="122.9" y2="131.3" stroke="#2dd4bf" stroke-width="1.25" opacity="0.95"/>
<text x="264" y="76" font-family="ui-monospace, SFMono-Regular, 'SF Mono', Menlo, Consolas, 'Liberation Mono', monospace" font-size="13" font-weight="700" xml:space="preserve"><tspan fill="#3FB950">osama</tspan><tspan fill="#8B949E">@</tspan><tspan fill="#2DD4BF">github</tspan></text>
<line x1="264" y1="88" x2="852" y2="88" stroke="#21262D" stroke-width="1"/>
<text x="264" y="112" font-family="ui-monospace, SFMono-Regular, 'SF Mono', Menlo, Consolas, 'Liberation Mono', monospace" font-size="12.5" font-weight="normal" fill="#8B949E" xml:space="preserve">Host</text>
<text x="380" y="112" font-family="ui-monospace, SFMono-Regular, 'SF Mono', Menlo, Consolas, 'Liberation Mono', monospace" font-size="12.5" font-weight="normal" xml:space="preserve"><tspan fill="#C9D1D9">Windows 11</tspan><tspan fill="#8B949E">  ·  </tspan><tspan fill="#C9D1D9">WSL2</tspan><tspan fill="#8B949E">  ·  </tspan><tspan fill="#C9D1D9">Linux</tspan></text>
<text x="264" y="132" font-family="ui-monospace, SFMono-Regular, 'SF Mono', Menlo, Consolas, 'Liberation Mono', monospace" font-size="12.5" font-weight="normal" fill="#8B949E" xml:space="preserve">Shell</text>
<text x="380" y="132" font-family="ui-monospace, SFMono-Regular, 'SF Mono', Menlo, Consolas, 'Liberation Mono', monospace" font-size="12.5" font-weight="normal" xml:space="preserve"><tspan fill="#C9D1D9">PowerShell</tspan><tspan fill="#8B949E">  ·  </tspan><tspan fill="#C9D1D9">bash</tspan></text>
<text x="264" y="152" font-family="ui-monospace, SFMono-Regular, 'SF Mono', Menlo, Consolas, 'Liberation Mono', monospace" font-size="12.5" font-weight="normal" fill="#8B949E" xml:space="preserve">Editor</text>
<text x="380" y="152" font-family="ui-monospace, SFMono-Regular, 'SF Mono', Menlo, Consolas, 'Liberation Mono', monospace" font-size="12.5" font-weight="normal" xml:space="preserve"><tspan fill="#C9D1D9">VS Code</tspan><tspan fill="#8B949E">  ·  </tspan><tspan fill="#C9D1D9">Git</tspan></text>
<text x="264" y="172" font-family="ui-monospace, SFMono-Regular, 'SF Mono', Menlo, Consolas, 'Liberation Mono', monospace" font-size="12.5" font-weight="normal" fill="#8B949E" xml:space="preserve">Role</text>
<text x="380" y="172" font-family="ui-monospace, SFMono-Regular, 'SF Mono', Menlo, Consolas, 'Liberation Mono', monospace" font-size="12.5" font-weight="normal" xml:space="preserve"><tspan fill="#BC8CFF">Database Administrator</tspan><tspan fill="#8B949E">  ·  </tspan><tspan fill="#8B949E">The Bank of Punjab</tspan></text>
<text x="264" y="192" font-family="ui-monospace, SFMono-Regular, 'SF Mono', Menlo, Consolas, 'Liberation Mono', monospace" font-size="12.5" font-weight="normal" fill="#8B949E" xml:space="preserve">Previous</text>
<text x="380" y="192" font-family="ui-monospace, SFMono-Regular, 'SF Mono', Menlo, Consolas, 'Liberation Mono', monospace" font-size="12.5" font-weight="normal" xml:space="preserve"><tspan fill="#E3B341">Camera / Image Evaluation Engineer</tspan></text>
<text x="264" y="212" font-family="ui-monospace, SFMono-Regular, 'SF Mono', Menlo, Consolas, 'Liberation Mono', monospace" font-size="12.5" font-weight="normal" fill="#8B949E" xml:space="preserve">Repos</text>
<text x="380" y="212" font-family="ui-monospace, SFMono-Regular, 'SF Mono', Menlo, Consolas, 'Liberation Mono', monospace" font-size="12.5" font-weight="normal" xml:space="preserve"><tspan fill="#2DD4BF">32 public</tspan><tspan fill="#8B949E">  ·  </tspan><tspan fill="#8B949E">500 tracked files</tspan></text>
<text x="264" y="232" font-family="ui-monospace, SFMono-Regular, 'SF Mono', Menlo, Consolas, 'Liberation Mono', monospace" font-size="12.5" font-weight="normal" fill="#8B949E" xml:space="preserve">Languages</text>
<text x="380" y="232" font-family="ui-monospace, SFMono-Regular, 'SF Mono', Menlo, Consolas, 'Liberation Mono', monospace" font-size="12.5" font-weight="normal" xml:space="preserve"><tspan fill="#58A6FF">Python</tspan><tspan fill="#8B949E">  ·  </tspan><tspan fill="#FF8C42">HTML</tspan><tspan fill="#8B949E">  ·  </tspan><tspan fill="#BC8CFF">CSS</tspan><tspan fill="#8B949E">  ·  </tspan><tspan fill="#E3B341">JavaScript</tspan><tspan fill="#8B949E">  ·  </tspan><tspan fill="#3FB950">Inno Setup</tspan></text>
<text x="264" y="252" font-family="ui-monospace, SFMono-Regular, 'SF Mono', Menlo, Consolas, 'Liberation Mono', monospace" font-size="12.5" font-weight="normal" fill="#8B949E" xml:space="preserve">Surface</text>
<text x="380" y="252" font-family="ui-monospace, SFMono-Regular, 'SF Mono', Menlo, Consolas, 'Liberation Mono', monospace" font-size="12.5" font-weight="normal" xml:space="preserve"><tspan fill="#3FB950">CLI</tspan><tspan fill="#8B949E">  ·  </tspan><tspan fill="#3FB950">desktop GUI</tspan><tspan fill="#8B949E">  ·  </tspan><tspan fill="#3FB950">diagnostics</tspan></text>
<text x="264" y="272" font-family="ui-monospace, SFMono-Regular, 'SF Mono', Menlo, Consolas, 'Liberation Mono', monospace" font-size="12.5" font-weight="normal" fill="#8B949E" xml:space="preserve">Domains</text>
<text x="380" y="272" font-family="ui-monospace, SFMono-Regular, 'SF Mono', Menlo, Consolas, 'Liberation Mono', monospace" font-size="12.5" font-weight="normal" xml:space="preserve"><tspan fill="#C9D1D9">QA</tspan><tspan fill="#8B949E">  ·  </tspan><tspan fill="#C9D1D9">camera IQ</tspan><tspan fill="#8B949E">  ·  </tspan><tspan fill="#C9D1D9">database ops</tspan><tspan fill="#8B949E">  ·  </tspan><tspan fill="#C9D1D9">networking</tspan></text>
<text x="264" y="292" font-family="ui-monospace, SFMono-Regular, 'SF Mono', Menlo, Consolas, 'Liberation Mono', monospace" font-size="12.5" font-weight="normal" fill="#8B949E" xml:space="preserve">Uptime</text>
<text x="380" y="292" font-family="ui-monospace, SFMono-Regular, 'SF Mono', Menlo, Consolas, 'Liberation Mono', monospace" font-size="12.5" font-weight="normal" xml:space="preserve"><tspan fill="#8B949E">since 2021-11-03</tspan></text>
<rect x="0.5" y="0.5" width="879" height="343" rx="10" fill="none" stroke="#AFB8C1" stroke-width="1"/>
</svg>
